<svg xmlns="http://www.w3.org/2000/svg" version="1.1" xmlns:xlink="http://www.w3.org/1999/xlink" xmlns:svgjs="http://svgjs.dev/svgjs" width="1500" height="1500" viewBox="0 0 1500 1500"><rect width="1500" height="1500" fill="#ffffff"></rect><g transform="matrix(0.6666666666666666,0,0,0.6666666666666666,249.50000000000006,249.50000000000006)"><svg viewBox="0 0 280 280" data-background-color="#ffffff" preserveAspectRatio="xMidYMid meet" height="1500" width="1500" xmlns="http://www.w3.org/2000/svg" xmlns:xlink="http://www.w3.org/1999/xlink"><g id="tight-bounds" transform="matrix(1,0,0,1,0.13999999999998636,0.13999999999998636)"><svg viewBox="0 0 279.72 279.72" height="279.72" width="279.72"><g><svg viewBox="0 0 279.72 279.72" height="279.72" width="279.72"><g><svg viewBox="0 0 279.72 279.72" height="279.72" width="279.72"><g id="textblocktransform"><svg viewBox="0 0 279.72 279.72" height="279.72" width="279.72" id="textblock"><g><svg viewBox="0 0 279.72 279.72" height="279.72" width="279.72"><g transform="matrix(1,0,0,1,57.446704652707865,57.446704652707865)"><svg viewBox="0 0 164.8265906945843 164.8265906945843" height="164.8265906945843" width="164.8265906945843"><g id="icon-0"><circle r="82" cx="82.41329534729215" cy="82.41329534729215" fill="#000000" data-fill-palette-color="accent"></circle><svg xmlns="http://www.w3.org/2000/svg" xmlns:xlink="http://www.w3.org/1999/xlink" version="1.1" x="24.723988604187646" y="24.72398860418764" viewBox="0 0 100 100" enable-background="new 0 0 100 100" xml:space="preserve" height="115.378613486209" width="115.378613486209" class="icon-xg-0" data-fill-palette-color="quaternary" id="xg-0"><path d="M85.359 24.972c0-7.835-3.511-14.241-9.631-17.577-5.071-2.764-11.393-3.095-17.992-1.2-0.893-0.901-2.27-1.191-3.458-0.581l-7.734 4.013c-1.02 0.532-1.569 1.572-1.572 2.648H40.2c-0.822 0-1.488 0.666-1.488 1.488s0.666 1.488 1.488 1.488h2.958l-1.078 1.857c-0.413 0.709-0.168 1.622 0.541 2.034 0.235 0.137 0.494 0.201 0.747 0.201 0.511 0 1.011-0.265 1.287-0.741l2.102-3.618c0.369 0.154 0.758 0.261 1.159 0.261 0.462 0 0.93-0.107 1.369-0.334l7.733-4.014c0.762-0.395 1.264-1.075 1.479-1.839 5.864-1.7 11.415-1.441 15.807 0.95 5.132 2.799 8.079 8.254 8.079 14.964 0 10.337-12.087 18.134-32.488 21.151v-4.862c10.116-0.901 19.431-6.304 25.889-15.229l3.414-4.72H14.64l3.415 4.72c6.455 8.925 15.772 14.328 25.888 15.229v5.871c-3.237 0.959-5.231 2.793-5.231 5.042 0 3.208 2.854 5.007 5.231 5.966v8.888c-2.592 1.206-4.874 2.955-4.874 5.792 0 1.9 1.572 3.595 4.874 5.263v8.689c-3.609 0.338-6.934 1.256-9.393 2.674-1.424 0.82-1.916 2.639-1.096 4.063 0.822 1.424 2.642 1.915 4.066 1.093 4.432-2.555 14.374-2.549 18.794 0 0.468 0.27 0.979 0.397 1.484 0.397 1.029 0 2.029-0.534 2.581-1.487 0.819-1.425 0.331-3.244-1.093-4.066-2.456-1.418-5.78-2.336-9.393-2.674v-5.254c1.032 0.9 1.761 1.79 2.072 2.406 0.265 0.518 0.787 0.816 1.331 0.816 0.224 0 0.453-0.052 0.668-0.159 0.735-0.372 1.029-1.268 0.657-2-0.718-1.424-2.45-3.272-4.729-4.78v-9.898c2.691-1.116 5.283-2.715 5.283-5.546 0-2.845-2.874-4.53-5.283-5.454v-7.78C72.462 45.893 85.359 37.175 85.359 24.972zM66.848 27.265c-5.557 5.289-12.566 8.23-19.928 8.23-7.361 0-14.374-2.941-19.928-8.23H66.848zM41.688 52.174c0-0.613 0.819-1.354 2.255-1.916v4.606C42.63 54.146 41.688 53.226 41.688 52.174zM42.046 72.819c0-0.84 0.636-1.64 1.897-2.415v4.274C42.107 73.522 42.046 72.828 42.046 72.819zM52.203 62.356c0 0.846-0.971 1.59-2.308 2.259v-4.487C51.308 60.825 52.203 61.639 52.203 62.356z" fill="#ffffff" data-fill-palette-color="quaternary"></path></svg></g></svg></g><g id="text-0"><path d="M8.9 88.581l11.497 11.404 12.631 4.242-0.796 2.37-12.594-4.23-16.106 2.197 0.859-2.559 12.796-1.753-9.147-9.113z" fill="#000000" data-fill-palette-color="primary"></path><path d="M57.983 62.785l-9.716 12.3-21.857-17.266 9.716-12.3 1.876 1.482-8.161 10.33 8.119 6.414 6.605-8.361 1.876 1.481-6.606 8.362 8.112 6.408 8.161-10.331z" fill="#000000" data-fill-palette-color="primary"></path><path d="M92.383 38.128l-2.486 1.469-12.556-6.392-2.958 1.748 6.048 10.237-2.16 1.276-14.17-23.981 7.605-4.493c0.817-0.483 1.673-0.784 2.567-0.903 0.897-0.114 1.77-0.059 2.618 0.164 0.851 0.214 1.641 0.592 2.37 1.133 0.734 0.538 1.341 1.213 1.821 2.024v0l1.15 1.947c0.48 0.812 0.778 1.669 0.895 2.571 0.123 0.899 0.072 1.773-0.151 2.622-0.214 0.851-0.587 1.642-1.12 2.374-0.535 0.725-1.212 1.329-2.029 1.812v0zM80.071 23.633l-1.15-1.946c-0.314-0.532-0.708-0.97-1.181-1.315-0.474-0.345-0.987-0.593-1.539-0.744-0.555-0.143-1.123-0.177-1.704-0.104-0.581 0.073-1.138 0.267-1.669 0.581v0l-5.35 3.161 5.689 9.629 5.35-3.161c0.532-0.314 0.97-0.708 1.314-1.182 0.345-0.474 0.588-0.988 0.732-1.542 0.134-0.557 0.164-1.126 0.09-1.708-0.073-0.581-0.267-1.138-0.582-1.669z" fill="#000000" data-fill-palette-color="primary"></path><path d="M133.055 27.46l-15.453 2.628-4.67-27.46 15.453-2.628 0.401 2.356-12.979 2.208 1.735 10.2 10.505-1.786 0.4 2.356-10.505 1.786 1.734 10.191 12.978-2.207z" fill="#000000" data-fill-palette-color="primary"></path><path d="M178.535 33.161l-2.453-0.53 4.03-18.66-0.416 1.122-10.107 16.136-1.285-0.278-2.605-18.881 0.104-1.19-4.03 18.661-2.453-0.53 5.88-27.227 1.275 0.276 3.432 24.113-0.139 1.019 0.295-0.986 13.057-20.551 1.295 0.279z" fill="#000000" data-fill-palette-color="primary"></path><path d="M206.021 47.053l-2.134-1.321 14.657-23.686 2.134 1.321z" fill="#000000" data-fill-palette-color="primary"></path><path d="M257.979 59.398l-15.772 3.672-10.31 8.44-1.584-1.934 10.279-8.415 6.706-14.808 1.71 2.088-5.32 11.769 12.581-2.9z" fill="#000000" data-fill-palette-color="primary"></path><path d="M251.938 109.719l5.467-3.963-3.016-8.281-6.728 0.5-0.889-2.442 28.963-1.869 0.453 1.244-23.367 17.234zM270.179 96.334l-13.322 0.963 2.56 7.027 10.813-7.849 0.94-0.417z" fill="#000000" data-fill-palette-color="primary"></path><path d="M12.962 143.616c0-1.763 1.429-3.192 3.192-3.192 1.763 0 3.192 1.429 3.192 3.192 0 1.763-1.429 3.192-3.192 3.192-1.763 0-3.192-1.429-3.192-3.192z" fill="#000000" data-fill-palette-color="primary"></path><path d="M263.672 143.616c0-1.763 1.429-3.192 3.192-3.192 1.763 0 3.192 1.429 3.192 3.192 0 1.763-1.429 3.192-3.192 3.192-1.763 0-3.192-1.429-3.192-3.192z" fill="#000000" data-fill-palette-color="primary"></path></g><g id="text-1"><path d="M39.347 179.077c1.067 3.185 1.173 5.852 0.318 8.002-0.851 2.141-2.652 3.672-5.403 4.593v0c-2.933 0.983-5.403 0.897-7.407-0.259-2.001-1.164-3.504-3.248-4.511-6.25v0l-0.512-1.53-9.292 3.114-1.626-4.853 26.411-8.851zM25.882 183.684c0.555 1.656 1.34 2.723 2.354 3.202 1.009 0.481 2.441 0.411 4.298-0.212v0c1.687-0.565 2.788-1.344 3.303-2.335 0.521-0.994 0.509-2.306-0.037-3.937v0l-0.437-1.303-9.905 3.319z" fill="#000000" data-fill-palette-color="primary"></path><path d="M41.85 237.191l-3.199-4.059 9.815-7.737-4.463-5.662-9.815 7.736-3.169-4.02 21.875-17.242 3.169 4.02-8.83 6.96 4.463 5.662 8.83-6.96 3.2 4.059z" fill="#000000" data-fill-palette-color="primary"></path><path d="M81.529 266.43l-4.483-2.631 2.12-6.33-6.184-3.628-4.457 4.959-4.415-2.59 20.142-20.477 5.36 3.145zM84.883 240.641l-9.25 10.275 4.827 2.833z" fill="#000000" data-fill-palette-color="primary"></path><path d="M126.361 279.72l-5.413-1.071-2.642-11.985-0.479-0.095-1.934-0.382-2.183 11.029-5.022-0.994 5.409-27.324 6.448 1.276c6.591 1.305 9.356 4.634 8.296 9.987v0c-0.329 1.661-0.991 3.056-1.986 4.186-0.989 1.131-2.288 1.882-3.897 2.253v0zM118.275 262.871c1.557 0.308 2.756 0.163 3.598-0.434 0.843-0.598 1.423-1.701 1.742-3.31v0c0.298-1.504 0.154-2.677-0.431-3.517-0.584-0.846-1.706-1.434-3.367-1.763v0l-1.426-0.282-1.777 8.978z" fill="#000000" data-fill-palette-color="primary"></path><path d="M171.71 248.331l6.59 27.122-4.805 0.848-2.528-11.506c-0.905-4.209-1.517-7.212-1.834-9.01v0l-0.325-2.067-0.289 20.348-4.766 0.841-7.416-19.027c0.166 0.786 0.394 2 0.684 3.642v0c0.491 2.779 0.889 5.341 1.195 7.686v0l1.589 11.511-4.727 0.835-3.099-27.738 6.354-1.122 6.984 18.699-0.08-19.918z" fill="#000000" data-fill-palette-color="primary"></path><path d="M221.919 254.05l-4.408 2.756-4.628-4.811-6.08 3.801 2.332 6.247-4.34 2.714-8.823-27.334 5.269-3.295zM200.614 239.136l4.825 12.957 4.745-2.968z" fill="#000000" data-fill-palette-color="primary"></path><path d="M226.863 209.465c0.892-1.106 1.864-1.934 2.915-2.486 1.051-0.551 2.274-0.92 3.67-1.107v0l0.742 3.759c-0.939 0.138-1.734 0.367-2.384 0.687-0.656 0.316-1.229 0.778-1.722 1.388v0c-1.013 1.256-1.177 2.744-0.493 4.464 0.68 1.726 2.493 3.777 5.438 6.154v0c2.909 2.347 5.284 3.675 7.125 3.984 1.837 0.314 3.279-0.178 4.325-1.475v0c0.525-0.651 0.85-1.323 0.975-2.017 0.129-0.689 0.181-1.577 0.154-2.665v0l3.746-0.138c0.211 1.271 0.186 2.577-0.078 3.918-0.268 1.336-0.875 2.591-1.821 3.764v0c-1.976 2.449-4.499 3.625-7.569 3.528-3.065-0.093-6.48-1.659-10.247-4.698v0c-2.485-2.005-4.288-4.027-5.407-6.065-1.115-2.043-1.601-4-1.456-5.872 0.141-1.866 0.836-3.574 2.087-5.123z" fill="#000000" data-fill-palette-color="primary"></path><path d="M244.84 175.331l1.711-4.951 13.909 12.561 10.024 3.464-1.688 4.885-9.986-3.451-18.734 1.282 1.775-5.14 13.877-0.031z" fill="#000000" data-fill-palette-color="primary"></path></g></svg></g></svg></g></svg></g><g></g></svg></g><defs></defs></svg><rect width="279.72" height="279.72" fill="none" stroke="none" visibility="hidden"></rect></g></svg></g></svg>